# xmcd
#
# Track frame offsets:
#	150
#	16340
#	35960
#	53942
#	69087
#	86455
#	99952
#	116847
#	128352
#	144640
#	168430
#	186022
#	203097
#	217765
#	234137
#	249297
#	264147
#	279140
#	295760
#	313040
#	324500
#
# Disc length: 4565 seconds
#
# Revision: 1
# Processed by: cddbd v1.5PL3 Copyright (c) Steve Scherf et al.
# Submitted via: audiograbber 1.82.01
#
DISCID=1411d315
DTITLE=Eric Clapton - Archives Pathfinder - Outtakes - Mid Valley Records - Dis
DTITLE=c 1
DYEAR=1900
DGENRE=
TTITLE0=Eric Clapton - Slunky (Delaney Bramlette Mix)
TTITLE1=Eric Clapton - Bad Boy (Delaney Bramlette Mix)
TTITLE2=Eric Clapton - Lonesome and a Long Way From Home (Delaney Bramlette Mix
TTITLE2=)
TTITLE3=Eric Clapton - After Midnight (Delaney Bramlette Mix)
TTITLE4=Eric Clapton - Blues Power (Delaney Bramlette Mix)
TTITLE5=Eric Clapton - Bottle of Red Wine (Delaney Bramlette Mix)
TTITLE6=Eric Clapton - Lovin' You Lovin' Me (Delaney Bramlette Mix)
TTITLE7=Eric Clapton - Told You For the Last Time (Delaney Bramlette Mix)
TTITLE8=Eric Clapton - Don't Know Why (Delaney Bramlette Mix)
TTITLE9=Eric Clapton - Let it Rain (Delaney Bramlette Mix)
TTITLE10=Eric Clapton - Bad Boy (Original Long Version)
TTITLE11=Eric Clapton - Lonesome and a Long Way From Home (Original Long Versio
TTITLE11=n)
TTITLE12=Eric Clapton - After Midnight (Original Long Version)
TTITLE13=Eric Clapton - Blues Power (Original Long Version)
TTITLE14=Eric Clapton - Don't Know Why (Original Long Version)
TTITLE15=Eric Clapton - After Midnight (Alternate Mix #1)
TTITLE16=Eric Clapton - Blues Power (Alternate Mix #1)
TTITLE17=Eric Clapton - Bad Boy (Alternate Mix #1 with different vocal take 1)
TTITLE18=Eric Clapton - Lovin' You Lovin' Me (Alternate Mix #1)
TTITLE19=Eric Clapton - Told You For the Last Time (Alternate Mix)
TTITLE20=Eric Clapton - Bad Boy (Alternate Mix #2 with different vocal take 2)
EXTD=
EXTT0=
EXTT1=
EXTT2=
EXTT3=
EXTT4=
EXTT5=
EXTT6=
EXTT7=
EXTT8=
EXTT9=
EXTT10=
EXTT11=
EXTT12=
EXTT13=
EXTT14=
EXTT15=
EXTT16=
EXTT17=
EXTT18=
EXTT19=
EXTT20=
PLAYORDER=
